# File created by Blade
# Date/Time:  Tue Jan 27 18:35:03 2015
# Frame Rate: 120.000 fps
#------------------------------------------------------
:FULLY-SPECIFIED
:DEGREES
1122
root -3.771803 31.590035 -2.044064 -13.341194 15.388106 -15.453083
Spine 14.546500 -14.359053 -4.244251
Head 9.087282 -0.990001 18.301032
LeftShoulder -12.279586 11.589676 19.368859
LeftArm 32.179578 -21.790768 -76.185039
LeftForeArm 124.352132 -0.000000 135.558741
LeftHand 10.257323 -0.000000 -4.942954
LeftHandThumb1 -26.253704 0.000000 33.147579
RightShoulder -16.421314 -10.224170 -4.217900
RightArm 1.213075 -32.843102 84.518286
RightForeArm -23.645218 -0.000000 29.699497
RightHand -13.933738 -0.000000 11.852188
RightHandThumb1 -24.326973 -0.000000 -32.862282
LeftUpLeg -4.011083 3.429351 9.324317
LeftLeg 35.427114 -0.000000 -0.000000
LeftFoot -30.754412 7.895295 -18.489608
LeftToeBase 10.908840 -0.000000 -0.000000
RightUpLeg -88.486567 5.887840 24.147861
RightLeg 83.125275 -0.000000 -0.000000
RightFoot -11.104374 -2.096255 28.079921
RightToeBase 5.818315 -0.000000 -0.000000
1123
root -3.774542 31.589207 -2.041772 -13.376040 15.398423 -15.495135
Spine 14.580061 -14.369953 -4.224407
Head 9.152268 -1.043586 18.331484
LeftShoulder -12.260891 11.547338 19.379191
LeftArm 32.248584 -21.652210 -76.025064
LeftForeArm 124.483027 -0.000000 135.449173
LeftHand 10.241923 -0.000000 -5.168120
LeftHandThumb1 -26.253704 0.000000 33.147579
RightShoulder -16.463648 -10.238617 -4.192036
RightArm 1.184923 -32.936344 84.586938
RightForeArm -23.643849 0.000000 29.635170
RightHand -13.906867 -0.000000 11.796262
RightHandThumb1 -24.326973 -0.000000 -32.862282
LeftUpLeg -4.010904 3.418943 9.373719
LeftLeg 35.477374 -0.000000 -0.000000
LeftFoot -30.805115 7.813547 -18.574886
LeftToeBase 11.049276 -0.000000 -0.000000
RightUpLeg -88.516105 5.954198 24.062907
RightLeg 83.097676 -0.000000 -0.000000
RightFoot -11.070955 -2.095601 28.099611
RightToeBase 5.760941 -0.000000 -0.000000
1124
root -3.779504 31.588983 -2.039654 -13.429842 15.412996 -15.552127
Spine 14.630810 -14.388293 -4.202156
Head 9.228949 -1.102094 18.371041
LeftShoulder -12.206994 11.446252 19.394244
LeftArm 32.256617 -21.523801 -75.802185
LeftForeArm 124.586556 -0.000000 135.334206
LeftHand 10.176866 -0.000000 -5.325910
LeftHandThumb1 -26.253704 0.000000 33.147579
RightShoulder -16.495435 -10.250487 -4.159687
RightArm 1.157705 -33.034695 84.638486
RightForeArm -23.631980 0.000000 29.611064
RightHand -13.933751 -0.000000 11.919750
RightHandThumb1 -24.326973 -0.000000 -32.862282
LeftUpLeg -4.002171 3.414475 9.446179
LeftLeg 35.531808 -0.000000 -0.000000
LeftFoot -30.827183 7.749177 -18.593760
LeftToeBase 11.092003 -0.000000 -0.000000
RightUpLeg -88.530306 6.016622 23.985506
RightLeg 83.051517 -0.000000 -0.000000
RightFoot -11.036832 -2.135674 27.941658
RightToeBase 5.640195 -0.000000 -0.000000
1125
root -3.784947 31.588111 -2.038599 -13.455507 15.443313 -15.605847
Spine 14.647232 -14.422358 -4.180488
Head 9.324891 -1.164231 18.410004
LeftShoulder -12.152653 11.400674 19.394674
LeftArm 32.324221 -21.397443 -75.604849
LeftForeArm 124.646327 -0.000000 135.208356
LeftHand 10.124372 -0.000000 -5.354424
LeftHandThumb1 -26.253704 0.000000 33.147579
RightShoulder -16.516176 -10.270048 -4.135564
RightArm 1.120513 -33.128952 84.710584
RightForeArm -23.607169 -0.000000 29.567670
RightHand -13.917987 -0.000000 11.927207
RightHandThumb1 -24.326973 -0.000000 -32.862282
LeftUpLeg -4.027971 3.427243 9.512121
LeftLeg 35.588724 -0.000000 -0.000000
LeftFoot -30.803616 7.718166 -18.532523
LeftToeBase 11.007348 -0.000000 -0.000000
RightUpLeg -88.578463 6.086031 23.892236
RightLeg 83.019968 -0.000000 -0.000000
RightFoot -11.044746 -2.147964 27.916250
RightToeBase 5.504004 -0.000000 -0.000000
1126
root -3.789672 31.587490 -2.037744 -13.485796 15.478420 -15.656696
Spine 14.675838 -14.458347 -4.163682
Head 9.404338 -1.223724 18.456394
LeftShoulder -12.101936 11.309985 19.423059
LeftArm 32.345663 -21.277094 -75.481192
LeftForeArm 124.734599 -0.000000 135.106322
LeftHand 10.110683 -0.000000 -5.472452
LeftHandThumb1 -26.253704 0.000000 33.147579
RightShoulder -16.541402 -10.284306 -4.102967
RightArm 1.092197 -33.241642 84.766219
RightForeArm -23.606451 0.000000 29.520835
RightHand -13.845779 -0.000000 11.934017
RightHandThumb1 -24.326973 -0.000000 -32.862282
LeftUpLeg -4.048376 3.437539 9.574000
LeftLeg 35.639274 -0.000000 -0.000000
LeftFoot -30.841975 7.625693 -18.576581
LeftToeBase 11.143084 -0.000000 -0.000000
RightUpLeg -88.625813 6.141083 23.812952
RightLeg 83.010979 -0.000000 -0.000000
RightFoot -11.173355 -2.127242 28.046428
RightToeBase 5.694888 -0.000000 -0.000000
1127
root -3.793973 31.585827 -2.038284 -13.486332 15.521115 -15.706623
Spine 14.670928 -14.504648 -4.133979
Head 9.477540 -1.288766 18.479615
LeftShoulder -12.025546 11.194047 19.434114
LeftArm 32.338545 -21.171064 -75.317871
LeftForeArm 124.810201 -0.000000 135.020375
LeftHand 10.060178 -0.000000 -5.640324
LeftHandThumb1 -26.253704 0.000000 33.147579
RightShoulder -16.597383 -10.343778 -4.064010
RightArm 1.135744 -33.375812 84.773720
RightForeArm -23.592806 -0.000000 29.485363
RightHand -13.781059 -0.000000 11.968901
RightHandThumb1 -24.326973 -0.000000 -32.862282
LeftUpLeg -4.102765 3.446511 9.629308
LeftLeg 35.690291 -0.000000 -0.000000
LeftFoot -30.858248 7.564395 -18.563942
LeftToeBase 11.184818 -0.000000 -0.000000
RightUpLeg -88.709125 6.201252 23.735584
RightLeg 82.999018 -0.000000 -0.000000
RightFoot -11.236898 -2.123643 28.087225
RightToeBase 5.588262 -0.000000 -0.000000
